<?xml version="1.0" encoding="iso-8859-1"?>
<!-- Generator: Adobe Illustrator 19.0.0, SVG Export Plug-In . SVG Version: 6.00 Build 0)  -->
<svg version="1.1" id="Layer_1" xmlns="http://www.w3.org/2000/svg" xmlns:xlink="http://www.w3.org/1999/xlink" x="0px" y="0px"
	 viewBox="0 0 512 512" style="enable-background:new 0 0 512 512;" xml:space="preserve">
<g>
	<g>
		<path d="M495.313,16.685c-22.249-22.248-58.449-22.247-80.697,0L49.378,381.922c-0.961,0.962-1.709,2.095-2.217,3.328h-0.001
			L0.769,497.916c-1.568,3.808-0.693,8.184,2.218,11.096c1.951,1.951,4.56,2.987,7.215,2.987c1.307,0,2.625-0.252,3.881-0.769
			l112.664-46.39l0.001-0.001c1.233-0.508,2.367-1.257,3.328-2.217L495.314,97.384C517.562,75.135,517.562,38.935,495.313,16.685z
			 M28.952,483.048l4.184-10.16l5.976,5.976L28.952,483.048z M59.548,470.449L41.55,452.452l18.646-45.286l44.636,44.636
			L59.548,470.449z M122.865,440.984l-51.848-51.848L364.391,95.759l51.848,51.848L122.865,440.984z M430.665,133.183
			l-51.848-51.848l13.556-13.557l51.848,51.848L430.665,133.183z M480.888,82.959l-22.242,22.242l-51.848-51.848l22.242-22.242
			c14.295-14.295,37.554-14.294,51.848,0C495.183,45.405,495.183,68.664,480.888,82.959z"/>
	</g>
</g>
<g>
	<g>
		<path d="M274.956,261.013c-3.983-3.983-10.441-3.983-14.425,0l-4.59,4.59c-3.983,3.983-3.983,10.441,0,14.425
			c1.992,1.992,4.602,2.987,7.212,2.987s5.221-0.995,7.212-2.987l4.59-4.59C278.938,271.454,278.938,264.996,274.956,261.013z"/>
	</g>
</g>
<g>
	<g>
		<path d="M244.866,291.102c-3.983-3.983-10.441-3.983-14.424,0L117.224,404.319c-3.983,3.983-3.983,10.441,0,14.425
			c1.992,1.992,4.602,2.987,7.212,2.987s5.221-0.995,7.212-2.987l113.217-113.217C248.849,301.544,248.849,295.086,244.866,291.102z
			"/>
	</g>
</g>
<g>
</g>
<g>
</g>
<g>
</g>
<g>
</g>
<g>
</g>
<g>
</g>
<g>
</g>
<g>
</g>
<g>
</g>
<g>
</g>
<g>
</g>
<g>
</g>
<g>
</g>
<g>
</g>
<g>
</g>
</svg>
